<mxfile host="app.diagrams.net" modified="2024-07-09T09:26:49.710Z" agent="Mozilla/5.0 (Macintosh; Intel Mac OS X 10_15_7) AppleWebKit/537.36 (KHTML, like Gecko) Chrome/126.0.0.0 Safari/537.36" etag="OJgj-90WRi1FU85tDjUw" version="24.6.4" type="github">
  <diagram name="第 1 页" id="FKsdt8u9-RkYYhhdsaq5">
    <mxGraphModel dx="1434" dy="1831" grid="1" gridSize="10" guides="1" tooltips="1" connect="1" arrows="1" fold="1" page="1" pageScale="1" pageWidth="827" pageHeight="1169" math="0" shadow="0">
      <root>
        <mxCell id="0" />
        <mxCell id="1" parent="0" />
        <mxCell id="7cUj4nOX0Q-iwzIHyv7q-50" style="edgeStyle=orthogonalEdgeStyle;rounded=0;orthogonalLoop=1;jettySize=auto;html=1;exitX=0.25;exitY=1;exitDx=0;exitDy=0;entryX=0.25;entryY=0;entryDx=0;entryDy=0;dashed=1;dashPattern=12 12;" edge="1" parent="1" source="7cUj4nOX0Q-iwzIHyv7q-22" target="7cUj4nOX0Q-iwzIHyv7q-12">
          <mxGeometry relative="1" as="geometry" />
        </mxCell>
        <mxCell id="7cUj4nOX0Q-iwzIHyv7q-23" style="edgeStyle=orthogonalEdgeStyle;rounded=0;orthogonalLoop=1;jettySize=auto;html=1;exitX=1;exitY=0.5;exitDx=0;exitDy=0;entryX=0;entryY=0.5;entryDx=0;entryDy=0;" edge="1" parent="1" source="hdqRihBdZJbinV5GYeB0-1" target="7cUj4nOX0Q-iwzIHyv7q-1">
          <mxGeometry relative="1" as="geometry" />
        </mxCell>
        <mxCell id="hdqRihBdZJbinV5GYeB0-1" value="GSC Data" style="rounded=1;whiteSpace=wrap;html=1;fillColor=#dae8fc;strokeColor=#6c8ebf;" parent="1" vertex="1">
          <mxGeometry x="80" y="130" width="110" height="40" as="geometry" />
        </mxCell>
        <mxCell id="7cUj4nOX0Q-iwzIHyv7q-24" style="edgeStyle=orthogonalEdgeStyle;rounded=0;orthogonalLoop=1;jettySize=auto;html=1;exitX=1;exitY=0.5;exitDx=0;exitDy=0;entryX=0;entryY=0.5;entryDx=0;entryDy=0;" edge="1" parent="1" source="7cUj4nOX0Q-iwzIHyv7q-1" target="7cUj4nOX0Q-iwzIHyv7q-2">
          <mxGeometry relative="1" as="geometry" />
        </mxCell>
        <mxCell id="7cUj4nOX0Q-iwzIHyv7q-1" value="Import Keywords" style="rounded=1;whiteSpace=wrap;html=1;fillColor=#dae8fc;strokeColor=#6c8ebf;" vertex="1" parent="1">
          <mxGeometry x="230" y="130" width="110" height="40" as="geometry" />
        </mxCell>
        <mxCell id="7cUj4nOX0Q-iwzIHyv7q-25" style="edgeStyle=orthogonalEdgeStyle;rounded=0;orthogonalLoop=1;jettySize=auto;html=1;exitX=1;exitY=0.25;exitDx=0;exitDy=0;entryX=0;entryY=0.5;entryDx=0;entryDy=0;dashed=1;dashPattern=12 12;" edge="1" parent="1" source="7cUj4nOX0Q-iwzIHyv7q-2" target="7cUj4nOX0Q-iwzIHyv7q-3">
          <mxGeometry relative="1" as="geometry" />
        </mxCell>
        <mxCell id="7cUj4nOX0Q-iwzIHyv7q-26" style="edgeStyle=orthogonalEdgeStyle;rounded=0;orthogonalLoop=1;jettySize=auto;html=1;exitX=1;exitY=0.5;exitDx=0;exitDy=0;entryX=0;entryY=0.5;entryDx=0;entryDy=0;dashed=1;dashPattern=12 12;" edge="1" parent="1" source="7cUj4nOX0Q-iwzIHyv7q-2" target="7cUj4nOX0Q-iwzIHyv7q-4">
          <mxGeometry relative="1" as="geometry" />
        </mxCell>
        <mxCell id="7cUj4nOX0Q-iwzIHyv7q-2" value="Extend Keywords" style="rounded=1;whiteSpace=wrap;html=1;fillColor=#dae8fc;strokeColor=#6c8ebf;" vertex="1" parent="1">
          <mxGeometry x="380" y="130" width="110" height="40" as="geometry" />
        </mxCell>
        <mxCell id="7cUj4nOX0Q-iwzIHyv7q-27" style="edgeStyle=orthogonalEdgeStyle;rounded=0;orthogonalLoop=1;jettySize=auto;html=1;exitX=1;exitY=0.5;exitDx=0;exitDy=0;entryX=0;entryY=0.5;entryDx=0;entryDy=0;" edge="1" parent="1" source="7cUj4nOX0Q-iwzIHyv7q-3" target="7cUj4nOX0Q-iwzIHyv7q-5">
          <mxGeometry relative="1" as="geometry" />
        </mxCell>
        <mxCell id="7cUj4nOX0Q-iwzIHyv7q-36" style="edgeStyle=orthogonalEdgeStyle;rounded=0;orthogonalLoop=1;jettySize=auto;html=1;exitX=0.5;exitY=1;exitDx=0;exitDy=0;entryX=0;entryY=0.5;entryDx=0;entryDy=0;" edge="1" parent="1" source="7cUj4nOX0Q-iwzIHyv7q-3" target="7cUj4nOX0Q-iwzIHyv7q-20">
          <mxGeometry relative="1" as="geometry" />
        </mxCell>
        <mxCell id="7cUj4nOX0Q-iwzIHyv7q-3" value="Query Companies" style="rounded=1;whiteSpace=wrap;html=1;fillColor=#d5e8d4;strokeColor=#82b366;" vertex="1" parent="1">
          <mxGeometry x="530" y="10" width="110" height="40" as="geometry" />
        </mxCell>
        <mxCell id="7cUj4nOX0Q-iwzIHyv7q-41" style="edgeStyle=orthogonalEdgeStyle;rounded=0;orthogonalLoop=1;jettySize=auto;html=1;exitX=1;exitY=0.5;exitDx=0;exitDy=0;entryX=0;entryY=0.5;entryDx=0;entryDy=0;" edge="1" parent="1" source="7cUj4nOX0Q-iwzIHyv7q-4" target="7cUj4nOX0Q-iwzIHyv7q-6">
          <mxGeometry relative="1" as="geometry" />
        </mxCell>
        <mxCell id="7cUj4nOX0Q-iwzIHyv7q-46" style="edgeStyle=orthogonalEdgeStyle;rounded=0;orthogonalLoop=1;jettySize=auto;html=1;exitX=0.5;exitY=1;exitDx=0;exitDy=0;entryX=0;entryY=0.5;entryDx=0;entryDy=0;" edge="1" parent="1" source="7cUj4nOX0Q-iwzIHyv7q-4" target="7cUj4nOX0Q-iwzIHyv7q-21">
          <mxGeometry relative="1" as="geometry" />
        </mxCell>
        <mxCell id="7cUj4nOX0Q-iwzIHyv7q-4" value="Query Products" style="rounded=1;whiteSpace=wrap;html=1;fillColor=#d5e8d4;strokeColor=#82b366;" vertex="1" parent="1">
          <mxGeometry x="530" y="250" width="110" height="40" as="geometry" />
        </mxCell>
        <mxCell id="7cUj4nOX0Q-iwzIHyv7q-28" style="edgeStyle=orthogonalEdgeStyle;rounded=0;orthogonalLoop=1;jettySize=auto;html=1;exitX=1;exitY=0.5;exitDx=0;exitDy=0;entryX=0;entryY=0.5;entryDx=0;entryDy=0;" edge="1" parent="1" source="7cUj4nOX0Q-iwzIHyv7q-5" target="7cUj4nOX0Q-iwzIHyv7q-7">
          <mxGeometry relative="1" as="geometry" />
        </mxCell>
        <mxCell id="7cUj4nOX0Q-iwzIHyv7q-33" style="edgeStyle=orthogonalEdgeStyle;rounded=0;orthogonalLoop=1;jettySize=auto;html=1;exitX=0.5;exitY=1;exitDx=0;exitDy=0;entryX=0.5;entryY=0;entryDx=0;entryDy=0;" edge="1" parent="1" source="7cUj4nOX0Q-iwzIHyv7q-5" target="7cUj4nOX0Q-iwzIHyv7q-18">
          <mxGeometry relative="1" as="geometry" />
        </mxCell>
        <mxCell id="7cUj4nOX0Q-iwzIHyv7q-5" value="Filter Num" style="rounded=1;whiteSpace=wrap;html=1;fillColor=#d5e8d4;strokeColor=#82b366;" vertex="1" parent="1">
          <mxGeometry x="690" y="10" width="110" height="40" as="geometry" />
        </mxCell>
        <mxCell id="7cUj4nOX0Q-iwzIHyv7q-42" style="edgeStyle=orthogonalEdgeStyle;rounded=0;orthogonalLoop=1;jettySize=auto;html=1;exitX=1;exitY=0.5;exitDx=0;exitDy=0;entryX=0;entryY=0.5;entryDx=0;entryDy=0;" edge="1" parent="1" source="7cUj4nOX0Q-iwzIHyv7q-6" target="7cUj4nOX0Q-iwzIHyv7q-8">
          <mxGeometry relative="1" as="geometry" />
        </mxCell>
        <mxCell id="7cUj4nOX0Q-iwzIHyv7q-45" style="edgeStyle=orthogonalEdgeStyle;rounded=0;orthogonalLoop=1;jettySize=auto;html=1;exitX=0.5;exitY=1;exitDx=0;exitDy=0;entryX=0.5;entryY=0;entryDx=0;entryDy=0;" edge="1" parent="1" source="7cUj4nOX0Q-iwzIHyv7q-6" target="7cUj4nOX0Q-iwzIHyv7q-16">
          <mxGeometry relative="1" as="geometry" />
        </mxCell>
        <mxCell id="7cUj4nOX0Q-iwzIHyv7q-6" value="Filter Num" style="rounded=1;whiteSpace=wrap;html=1;fillColor=#d5e8d4;strokeColor=#82b366;" vertex="1" parent="1">
          <mxGeometry x="690" y="250" width="110" height="40" as="geometry" />
        </mxCell>
        <mxCell id="7cUj4nOX0Q-iwzIHyv7q-32" style="edgeStyle=orthogonalEdgeStyle;rounded=0;orthogonalLoop=1;jettySize=auto;html=1;exitX=1;exitY=0.5;exitDx=0;exitDy=0;entryX=0;entryY=0.5;entryDx=0;entryDy=0;" edge="1" parent="1" source="7cUj4nOX0Q-iwzIHyv7q-7" target="7cUj4nOX0Q-iwzIHyv7q-11">
          <mxGeometry relative="1" as="geometry" />
        </mxCell>
        <mxCell id="7cUj4nOX0Q-iwzIHyv7q-7" value="Generate URL" style="rounded=1;whiteSpace=wrap;html=1;fillColor=#d5e8d4;strokeColor=#82b366;" vertex="1" parent="1">
          <mxGeometry x="850" y="10" width="110" height="40" as="geometry" />
        </mxCell>
        <mxCell id="7cUj4nOX0Q-iwzIHyv7q-43" style="edgeStyle=orthogonalEdgeStyle;rounded=0;orthogonalLoop=1;jettySize=auto;html=1;exitX=1;exitY=0.5;exitDx=0;exitDy=0;entryX=0;entryY=0.5;entryDx=0;entryDy=0;" edge="1" parent="1" source="7cUj4nOX0Q-iwzIHyv7q-8" target="7cUj4nOX0Q-iwzIHyv7q-12">
          <mxGeometry relative="1" as="geometry" />
        </mxCell>
        <mxCell id="7cUj4nOX0Q-iwzIHyv7q-8" value="Generate URL" style="rounded=1;whiteSpace=wrap;html=1;fillColor=#d5e8d4;strokeColor=#82b366;" vertex="1" parent="1">
          <mxGeometry x="850" y="250" width="110" height="40" as="geometry" />
        </mxCell>
        <mxCell id="7cUj4nOX0Q-iwzIHyv7q-29" style="edgeStyle=orthogonalEdgeStyle;rounded=0;orthogonalLoop=1;jettySize=auto;html=1;exitX=0.5;exitY=1;exitDx=0;exitDy=0;entryX=0.5;entryY=0;entryDx=0;entryDy=0;" edge="1" parent="1" source="7cUj4nOX0Q-iwzIHyv7q-9" target="7cUj4nOX0Q-iwzIHyv7q-22">
          <mxGeometry relative="1" as="geometry" />
        </mxCell>
        <mxCell id="7cUj4nOX0Q-iwzIHyv7q-9" value="Sitemap Fetch" style="rounded=1;whiteSpace=wrap;html=1;fillColor=#d5e8d4;strokeColor=#82b366;" vertex="1" parent="1">
          <mxGeometry x="1010" y="-160" width="110" height="40" as="geometry" />
        </mxCell>
        <mxCell id="7cUj4nOX0Q-iwzIHyv7q-39" style="edgeStyle=orthogonalEdgeStyle;rounded=0;orthogonalLoop=1;jettySize=auto;html=1;exitX=1;exitY=0.5;exitDx=0;exitDy=0;entryX=0;entryY=0.5;entryDx=0;entryDy=0;" edge="1" parent="1" source="7cUj4nOX0Q-iwzIHyv7q-11" target="7cUj4nOX0Q-iwzIHyv7q-13">
          <mxGeometry relative="1" as="geometry" />
        </mxCell>
        <mxCell id="7cUj4nOX0Q-iwzIHyv7q-11" value="Judge Exist" style="rounded=1;whiteSpace=wrap;html=1;fillColor=#d5e8d4;strokeColor=#82b366;" vertex="1" parent="1">
          <mxGeometry x="1010" y="10" width="110" height="40" as="geometry" />
        </mxCell>
        <mxCell id="7cUj4nOX0Q-iwzIHyv7q-44" style="edgeStyle=orthogonalEdgeStyle;rounded=0;orthogonalLoop=1;jettySize=auto;html=1;exitX=1;exitY=0.5;exitDx=0;exitDy=0;entryX=0;entryY=0.5;entryDx=0;entryDy=0;" edge="1" parent="1" source="7cUj4nOX0Q-iwzIHyv7q-12" target="7cUj4nOX0Q-iwzIHyv7q-14">
          <mxGeometry relative="1" as="geometry" />
        </mxCell>
        <mxCell id="7cUj4nOX0Q-iwzIHyv7q-12" value="Judge Exist" style="rounded=1;whiteSpace=wrap;html=1;fillColor=#d5e8d4;strokeColor=#82b366;" vertex="1" parent="1">
          <mxGeometry x="1010" y="250" width="110" height="40" as="geometry" />
        </mxCell>
        <mxCell id="7cUj4nOX0Q-iwzIHyv7q-13" value="Generate Sitemap" style="rounded=1;whiteSpace=wrap;html=1;fillColor=#ffe6cc;strokeColor=#d79b00;" vertex="1" parent="1">
          <mxGeometry x="1170" y="10" width="110" height="40" as="geometry" />
        </mxCell>
        <mxCell id="7cUj4nOX0Q-iwzIHyv7q-14" value="Generate Sitemap" style="rounded=1;whiteSpace=wrap;html=1;fillColor=#ffe6cc;strokeColor=#d79b00;" vertex="1" parent="1">
          <mxGeometry x="1170" y="250" width="110" height="40" as="geometry" />
        </mxCell>
        <mxCell id="7cUj4nOX0Q-iwzIHyv7q-47" style="edgeStyle=orthogonalEdgeStyle;rounded=0;orthogonalLoop=1;jettySize=auto;html=1;exitX=1;exitY=0.5;exitDx=0;exitDy=0;entryX=0;entryY=0.5;entryDx=0;entryDy=0;" edge="1" parent="1" source="7cUj4nOX0Q-iwzIHyv7q-16" target="7cUj4nOX0Q-iwzIHyv7q-17">
          <mxGeometry relative="1" as="geometry" />
        </mxCell>
        <mxCell id="7cUj4nOX0Q-iwzIHyv7q-16" value="Add Filters" style="rounded=1;whiteSpace=wrap;html=1;fillColor=#d5e8d4;strokeColor=#82b366;" vertex="1" parent="1">
          <mxGeometry x="690" y="330" width="110" height="40" as="geometry" />
        </mxCell>
        <mxCell id="7cUj4nOX0Q-iwzIHyv7q-48" style="edgeStyle=orthogonalEdgeStyle;rounded=0;orthogonalLoop=1;jettySize=auto;html=1;exitX=1;exitY=0.5;exitDx=0;exitDy=0;entryX=0;entryY=0.75;entryDx=0;entryDy=0;" edge="1" parent="1" source="7cUj4nOX0Q-iwzIHyv7q-17" target="7cUj4nOX0Q-iwzIHyv7q-12">
          <mxGeometry relative="1" as="geometry" />
        </mxCell>
        <mxCell id="7cUj4nOX0Q-iwzIHyv7q-17" value="Generate Filter URL" style="rounded=1;whiteSpace=wrap;html=1;fillColor=#d5e8d4;strokeColor=#82b366;" vertex="1" parent="1">
          <mxGeometry x="850" y="330" width="110" height="40" as="geometry" />
        </mxCell>
        <mxCell id="7cUj4nOX0Q-iwzIHyv7q-34" style="edgeStyle=orthogonalEdgeStyle;rounded=0;orthogonalLoop=1;jettySize=auto;html=1;exitX=1;exitY=0.5;exitDx=0;exitDy=0;entryX=0;entryY=0.5;entryDx=0;entryDy=0;" edge="1" parent="1" source="7cUj4nOX0Q-iwzIHyv7q-18" target="7cUj4nOX0Q-iwzIHyv7q-19">
          <mxGeometry relative="1" as="geometry" />
        </mxCell>
        <mxCell id="7cUj4nOX0Q-iwzIHyv7q-18" value="Add Filters" style="rounded=1;whiteSpace=wrap;html=1;fillColor=#d5e8d4;strokeColor=#82b366;" vertex="1" parent="1">
          <mxGeometry x="690" y="90" width="110" height="40" as="geometry" />
        </mxCell>
        <mxCell id="7cUj4nOX0Q-iwzIHyv7q-37" style="edgeStyle=orthogonalEdgeStyle;rounded=0;orthogonalLoop=1;jettySize=auto;html=1;exitX=1;exitY=0.5;exitDx=0;exitDy=0;entryX=0;entryY=0.75;entryDx=0;entryDy=0;" edge="1" parent="1" source="7cUj4nOX0Q-iwzIHyv7q-19" target="7cUj4nOX0Q-iwzIHyv7q-11">
          <mxGeometry relative="1" as="geometry" />
        </mxCell>
        <mxCell id="7cUj4nOX0Q-iwzIHyv7q-19" value="Generate Filter URL" style="rounded=1;whiteSpace=wrap;html=1;fillColor=#d5e8d4;strokeColor=#82b366;" vertex="1" parent="1">
          <mxGeometry x="850" y="90" width="110" height="40" as="geometry" />
        </mxCell>
        <mxCell id="7cUj4nOX0Q-iwzIHyv7q-38" style="edgeStyle=orthogonalEdgeStyle;rounded=0;orthogonalLoop=1;jettySize=auto;html=1;exitX=1;exitY=0.5;exitDx=0;exitDy=0;entryX=0;entryY=1;entryDx=0;entryDy=0;" edge="1" parent="1" source="7cUj4nOX0Q-iwzIHyv7q-20" target="7cUj4nOX0Q-iwzIHyv7q-11">
          <mxGeometry relative="1" as="geometry" />
        </mxCell>
        <mxCell id="7cUj4nOX0Q-iwzIHyv7q-20" value="Generate CPP URL" style="rounded=1;whiteSpace=wrap;html=1;fillColor=#d5e8d4;strokeColor=#82b366;" vertex="1" parent="1">
          <mxGeometry x="850" y="170" width="110" height="40" as="geometry" />
        </mxCell>
        <mxCell id="7cUj4nOX0Q-iwzIHyv7q-49" style="edgeStyle=orthogonalEdgeStyle;rounded=0;orthogonalLoop=1;jettySize=auto;html=1;exitX=1;exitY=0.5;exitDx=0;exitDy=0;entryX=0;entryY=1;entryDx=0;entryDy=0;" edge="1" parent="1" source="7cUj4nOX0Q-iwzIHyv7q-21" target="7cUj4nOX0Q-iwzIHyv7q-12">
          <mxGeometry relative="1" as="geometry" />
        </mxCell>
        <mxCell id="7cUj4nOX0Q-iwzIHyv7q-21" value="Generate PDP URL" style="rounded=1;whiteSpace=wrap;html=1;fillColor=#d5e8d4;strokeColor=#82b366;" vertex="1" parent="1">
          <mxGeometry x="850" y="410" width="110" height="40" as="geometry" />
        </mxCell>
        <mxCell id="7cUj4nOX0Q-iwzIHyv7q-40" style="edgeStyle=orthogonalEdgeStyle;rounded=0;orthogonalLoop=1;jettySize=auto;html=1;exitX=0.5;exitY=1;exitDx=0;exitDy=0;entryX=0.5;entryY=0;entryDx=0;entryDy=0;dashed=1;dashPattern=12 12;" edge="1" parent="1" source="7cUj4nOX0Q-iwzIHyv7q-22" target="7cUj4nOX0Q-iwzIHyv7q-11">
          <mxGeometry relative="1" as="geometry" />
        </mxCell>
        <mxCell id="7cUj4nOX0Q-iwzIHyv7q-22" value="Import URL and Overwrite" style="rounded=1;whiteSpace=wrap;html=1;fillColor=#d5e8d4;strokeColor=#82b366;" vertex="1" parent="1">
          <mxGeometry x="1010" y="-90" width="110" height="40" as="geometry" />
        </mxCell>
        <mxCell id="7cUj4nOX0Q-iwzIHyv7q-51" value="Keyword Task" style="rounded=1;whiteSpace=wrap;html=1;fillColor=#dae8fc;strokeColor=#6c8ebf;" vertex="1" parent="1">
          <mxGeometry x="80" y="-160" width="110" height="40" as="geometry" />
        </mxCell>
        <mxCell id="7cUj4nOX0Q-iwzIHyv7q-52" value="Landing Page Task" style="rounded=1;whiteSpace=wrap;html=1;fillColor=#d5e8d4;strokeColor=#82b366;" vertex="1" parent="1">
          <mxGeometry x="240" y="-160" width="110" height="40" as="geometry" />
        </mxCell>
        <mxCell id="7cUj4nOX0Q-iwzIHyv7q-53" value="Sitemap Task" style="rounded=1;whiteSpace=wrap;html=1;fillColor=#ffe6cc;strokeColor=#d79b00;" vertex="1" parent="1">
          <mxGeometry x="400" y="-160" width="110" height="40" as="geometry" />
        </mxCell>
      </root>
    </mxGraphModel>
  </diagram>
</mxfile>
